<svg width="12" height="21" viewBox="0 0 12 21" fill="none" xmlns="http://www.w3.org/2000/svg">
<path d="M2.42871 1.25586C2.68321 1.28271 2.9159 1.4012 3.08789 1.58301L10.2031 9.10938L10.2041 9.11035C10.558 9.48612 10.75 9.98658 10.75 10.5C10.75 11.0134 10.5581 11.5139 10.2041 11.8896L10.2031 11.8906L3.08789 19.417C2.91593 19.5988 2.68319 19.7173 2.42871 19.7441L2.31836 19.75C2.0974 19.7501 1.88543 19.6803 1.70898 19.5557C1.53305 19.4314 1.40202 19.2591 1.32617 19.0654C1.25051 18.8721 1.23141 18.6616 1.26953 18.459C1.30775 18.2562 1.40288 18.0644 1.54883 17.9102H1.54785L8.55273 10.499L1.54785 3.08984C1.35263 2.88326 1.24994 2.61095 1.25 2.33594C1.25012 2.06102 1.35356 1.78945 1.54883 1.58301L1.62598 1.50879C1.81457 1.34567 2.05836 1.24996 2.31836 1.25L2.42871 1.25586Z" fill="#C9C9C9" stroke="#C9C9C9" stroke-width="1.5"/>
</svg>
