<svg width="34" height="34" viewBox="0 0 34 34" fill="none" xmlns="http://www.w3.org/2000/svg">
<path fill-rule="evenodd" clip-rule="evenodd" d="M2.83334 6.72917C2.83334 5.36067 3.944 4.25 5.3125 4.25H12.3548C13.1764 4.25 13.9414 4.65517 14.4047 5.33375L16.3937 8.25633C16.4261 8.3043 16.4698 8.34358 16.5209 8.37075C16.572 8.39792 16.629 8.41214 16.6869 8.41217H28.6875C30.056 8.41217 31.1667 9.52142 31.1667 10.8913V27.2708C31.1667 27.9283 30.9055 28.5589 30.4405 29.0239C29.9756 29.4888 29.345 29.75 28.6875 29.75H5.3125C4.65499 29.75 4.0244 29.4888 3.55947 29.0239C3.09453 28.5589 2.83334 27.9283 2.83334 27.2708V6.72917Z" fill="black"/>
</svg>
