<svg width="42" height="42" viewBox="0 0 42 42" fill="none" xmlns="http://www.w3.org/2000/svg">
<path d="M21 3.4375C22.001 3.4375 22.8125 4.24899 22.8125 5.25V23.3311L26.6621 19.1211C27.3375 18.3824 28.4839 18.3308 29.2227 19.0059C29.9614 19.6812 30.013 20.8277 29.3379 21.5664L22.3379 29.2227C21.9945 29.5982 21.5089 29.8125 21 29.8125C20.4911 29.8125 20.0055 29.5982 19.6621 29.2227L12.6621 21.5664C11.987 20.8276 12.0387 19.6812 12.7773 19.0059C13.5161 18.3307 14.6625 18.3824 15.3379 19.1211L19.1875 23.3311V5.25C19.1875 4.24899 19.999 3.43751 21 3.4375Z" fill="#1E1E1E" stroke="#1E1E1E"/>
<path d="M36.75 24.4375C37.751 24.4375 38.5625 25.249 38.5625 26.25V26.3457C38.5625 28.7258 38.5638 30.694 38.3545 32.252C38.1353 33.8824 37.6559 35.3323 36.4941 36.4941C35.3322 37.656 33.8824 38.1353 32.252 38.3545C30.694 38.5638 28.7258 38.5625 26.3457 38.5625H15.6543C13.2742 38.5625 11.306 38.5638 9.74805 38.3545C8.11763 38.1353 6.66769 37.6561 5.50586 36.4941C4.34402 35.3323 3.86472 33.8824 3.64551 32.252C3.43609 30.694 3.43747 28.7258 3.4375 26.3457V26.25C3.4375 25.249 4.24899 24.4375 5.25 24.4375C6.25104 24.4375 7.0625 25.249 7.0625 26.25C7.0625 28.7764 7.06608 30.4887 7.23828 31.7695C7.40342 32.9976 7.69324 33.5545 8.06934 33.9307C8.44538 34.3068 9.00234 34.5965 10.2305 34.7617C11.5112 34.9338 13.2236 34.9375 15.75 34.9375H26.25C28.7763 34.9375 30.4887 34.9338 31.7695 34.7617C32.9977 34.5965 33.5545 34.3068 33.9307 33.9307C34.3068 33.5545 34.5965 32.9977 34.7617 31.7695C34.9338 30.4887 34.9375 28.7763 34.9375 26.25C34.9375 25.249 35.749 24.4375 36.75 24.4375Z" fill="#1E1E1E" stroke="#1E1E1E"/>
</svg>
