<svg width="34" height="34" viewBox="0 0 34 34" fill="none" xmlns="http://www.w3.org/2000/svg">
<path d="M14.1667 24.0833L11.3333 21.25L14.1667 18.4167M19.8333 18.4167L22.6667 21.25L19.8333 24.0833M18.4167 4.25H11.6167C10.0299 4.25 9.23644 4.25 8.63036 4.55882C8.09723 4.83045 7.66379 5.26389 7.39215 5.79703C7.08334 6.40311 7.08334 7.19652 7.08334 8.78333V25.2167C7.08334 26.8035 7.08334 27.597 7.39215 28.203C7.66379 28.7361 8.09723 29.1696 8.63036 29.4412C9.23644 29.75 10.0299 29.75 11.6167 29.75H22.3833C23.9701 29.75 24.7636 29.75 25.3697 29.4412C25.9028 29.1696 26.3363 28.7361 26.6078 28.203C26.9167 27.597 26.9167 26.8035 26.9167 25.2167V12.75M18.4167 4.25L26.9167 12.75M18.4167 4.25V11.3333C18.4167 12.1157 19.0509 12.75 19.8333 12.75H26.9167" stroke="black" stroke-width="3" stroke-linecap="round" stroke-linejoin="round"/>
</svg>
