<svg width="34" height="34" viewBox="0 0 34 34" fill="none" xmlns="http://www.w3.org/2000/svg">
<path d="M18.4167 4.25H11.6167C10.0299 4.25 9.23644 4.25 8.63036 4.55882C8.09723 4.83045 7.66379 5.26389 7.39215 5.79703C7.08334 6.40311 7.08334 7.19652 7.08334 8.78333V25.2167C7.08334 26.8035 7.08334 27.597 7.39215 28.203C7.66379 28.7361 8.09723 29.1696 8.63036 29.4412C9.23644 29.75 10.0299 29.75 11.6167 29.75H14.1667M18.4167 4.25L26.9167 12.75M18.4167 4.25V10.4833C18.4167 11.2767 18.4167 11.6734 18.5711 11.9765C18.7069 12.243 18.9236 12.4598 19.1902 12.5956C19.4932 12.75 19.8899 12.75 20.6833 12.75H26.9167M26.9167 12.75V14.1667M12.75 24.0833H16.2917M12.75 18.4167H19.8333M12.75 12.75H14.1667M19.8333 29.75L22.7021 29.1762C22.9521 29.1262 23.0772 29.1012 23.1938 29.0554C23.2974 29.0149 23.3958 28.9622 23.4869 28.8986C23.5898 28.8269 23.6799 28.7368 23.8604 28.5563L29.75 22.6667C30.5324 21.8842 30.5324 20.6158 29.75 19.8333C28.9676 19.0509 27.6991 19.0509 26.9167 19.8333L21.027 25.723C20.8465 25.9035 20.7564 25.9936 20.6848 26.0964C20.6211 26.1875 20.5684 26.286 20.5279 26.3895C20.4822 26.5061 20.4571 26.6312 20.4071 26.8812L19.8333 29.75Z" stroke="black" stroke-width="3" stroke-linecap="round" stroke-linejoin="round"/>
</svg>
