<svg width="38" height="38" viewBox="0 0 38 38" fill="none" xmlns="http://www.w3.org/2000/svg">
<path fill-rule="evenodd" clip-rule="evenodd" d="M7.60005 17.1C7.60005 14.5804 8.60094 12.1641 10.3825 10.3825C12.1641 8.60089 14.5805 7.6 17.1 7.6C19.6196 7.6 22.036 8.60089 23.8176 10.3825C25.5992 12.1641 26.6 14.5804 26.6 17.1C26.6 19.6196 25.5992 22.0359 23.8176 23.8175C22.036 25.5991 19.6196 26.6 17.1 26.6C14.5805 26.6 12.1641 25.5991 10.3825 23.8175C8.60094 22.0359 7.60005 19.6196 7.60005 17.1ZM17.1 3.8C14.9926 3.8 12.9154 4.30079 11.0395 5.26109C9.1636 6.2214 7.54275 7.61373 6.31053 9.32335C5.07831 11.033 4.26998 13.0109 3.95216 15.0942C3.63435 17.1776 3.81614 19.3066 4.48256 21.3058C5.14898 23.3051 6.28096 25.1174 7.78519 26.5933C9.28943 28.0693 11.1229 29.1667 13.1344 29.795C15.146 30.4234 17.2781 30.5647 19.355 30.2075C21.4319 29.8502 23.3941 29.0044 25.08 27.74C25.1341 27.8119 25.1931 27.8798 25.2568 27.9433L30.9567 33.6433C31.3151 33.9894 31.795 34.1809 32.2932 34.1766C32.7914 34.1723 33.2679 33.9724 33.6202 33.6202C33.9725 33.2679 34.1723 32.7913 34.1766 32.2932C34.181 31.795 33.9895 31.315 33.6434 30.9567L27.9433 25.2567C27.8799 25.1931 27.8119 25.134 27.74 25.08C29.222 23.104 30.1245 20.7544 30.3463 18.2944C30.5681 15.8344 30.1005 13.3613 28.9959 11.1521C27.8913 8.94285 26.1934 7.08488 24.0923 5.78634C21.9912 4.4878 19.57 3.8 17.1 3.8Z" fill="black"/>
</svg>
